<?xml version="1.0" encoding="utf-8"?>
<!-- Generator: Adobe Illustrator 24.0.3, SVG Export Plug-In . SVG Version: 6.00 Build 0)  -->
<svg version="1.1" id="Calque_1" xmlns="http://www.w3.org/2000/svg" xmlns:xlink="http://www.w3.org/1999/xlink" x="0px" y="0px"
	 viewBox="0 0 608.3 675.4" style="enable-background:new 0 0 608.3 675.4;" xml:space="preserve">
<style type="text/css">
	.st0{fill:#FBA026;}
	.st1{fill:#FFFFFF;}
</style>
<path class="st0" d="M41.6,138.6L262.7,11.1c25.6-14.8,57.1-14.8,82.7,0l221.1,127.5c25.6,14.8,41.4,42.1,41.4,71.7V465
	c0,29.6-15.8,56.9-41.4,71.7L345.4,664.2c-25.6,14.8-57.1,14.8-82.7,0L41.6,536.7C16,522,0.2,494.6,0.2,465V210.3
	C0.2,180.7,16,153.3,41.6,138.6z"/>
<path class="st1" d="M530.1,475C530.1,475,530,474.9,530.1,475c0.1,0,0.1,0,0.1,0C530.1,475,530.1,475,530.1,475z M287.1,499.3
	c-81.1-6.6-146.9-71.9-152-155.6C129.4,252,199.2,173.3,291,167.6c91.7-5.6,170.7,64.5,176.3,156.2c0,0.2,1.1,14.4,1.1,14.4
	c5.1,83,31.1,101.9,48,118.7c-34.1-21.9-80-14.8-114.3,11.1c-0.3,0.2-0.2,0.2-0.4,0.4C384.9,481,366.1,490,347,495.1l0.2,0.3
	c-9.8,2.5-20,4.2-30.5,4.9C306.6,500.8,296.7,500.5,287.1,499.3z"/>
<ellipse transform="matrix(0.7071 -0.7071 0.7071 0.7071 -148.1278 312.9088)" class="st0" cx="303.7" cy="335.3" rx="91.3" ry="91.3"/>
</svg>
